<?xml version="1.0" encoding="utf-8"?>
<!-- Generator: Adobe Illustrator 27.4.0, SVG Export Plug-In . SVG Version: 6.00 Build 0)  -->
<svg version="1.1" id="Layer_1" xmlns="http://www.w3.org/2000/svg" xmlns:xlink="http://www.w3.org/1999/xlink" x="0px" y="0px"
	 viewBox="0 0 539.7 83.6" style="enable-background:new 0 0 539.7 83.6;" xml:space="preserve">
<style type="text/css">
	.st0{fill:#E51C21;}
	.st1{fill:#080906;}
	.st2{fill:#1D4C9A;}
</style>
<g>
	<path class="st0" d="M0,78.2C15,52,30,26.1,45,0c1.8,3.2,3.5,6.1,5.2,9c3.7,6.4,7.4,12.8,11.2,19.2c0.5,0.8,0.6,1.5,0,2.4
		c-5.7,9.8-11.4,19.6-17,29.4c-3.4,5.8-6.7,11.7-10.1,17.5c-0.2,0.4-0.9,0.7-1.4,0.7c-8.4,0.1-16.8,0.1-25.2,0.1
		C5.1,78.2,2.7,78.2,0,78.2z"/>
	<path class="st1" d="M342.2,42.9c-3.9,0-7.5,0-11.2,0c0-13.7,0-27.3,0-41c3.8,0,7.5,0,11.3,0c0,3.7,0,7.3,0,11c0,1.1,0,2.3-0.1,3.4
		c0,0.7,0.2,1,1,1c4.3,0,8.7,0,13,0c0.9,0,0.8-0.5,0.8-1.1c0-4.5,0-8.9,0-13.4c0-0.3,0-0.6,0.1-1.1c3.8,0,7.5,0,11.3,0
		c0,13.6,0,27.2,0,41c-3.8,0-7.5,0-11.4,0c0-2.1,0-4.2,0-6.3c0-2.7,0-5.4,0-8.1c0-0.8-0.2-1.2-1.1-1.2c-4.1,0-8.2,0.1-12.4,0
		c-1,0-1.3,0.3-1.3,1.3C342.3,33.3,342.2,38,342.2,42.9z"/>
	<path class="st1" d="M104.5,42.9c0-13.7,0-27.3,0-41c3.7,0,7.3,0,11.1,0c0,5.4,0,10.9,0,16.6c0.5-0.4,0.9-0.6,1.2-0.9
		c4.2-5,8.4-10,12.6-15c0.3-0.4,0.9-0.7,1.3-0.7c4-0.1,7.9,0,11.9,0c0.1,0,0.2,0.1,0.5,0.1c-1.3,1.5-2.5,3-3.8,4.4
		c-3.6,4.1-7.3,8.2-10.9,12.3c-0.5,0.6-0.7,1-0.2,1.7c4.7,6.8,9.3,13.6,14,20.4c0.5,0.7,0.9,1.3,1.5,2.2c-0.8,0-1.3,0-1.9,0
		c-3.2,0-6.5,0-9.7,0c-1.3,0-2.1-0.5-2.9-1.5c-2.8-4.2-5.6-8.4-8.5-12.5c-0.3-0.4-0.6-0.8-1-1.3c-1.4,1.5-2.6,2.9-3.9,4.4
		c-0.3,0.3-0.3,0.8-0.3,1.3c0,2.8,0,5.6,0.1,8.4c0,1-0.3,1.3-1.3,1.3C111.1,42.9,107.8,42.9,104.5,42.9z"/>
	<path class="st1" d="M528.9,42.8c0-1.3,0-2.5,0-4c-0.6,0.5-1.1,0.9-1.6,1.4c-1.9,1.8-4.1,3.1-6.7,3.3c-4.7,0.4-8.7-1.2-11.5-4.9
		c-4.6-6-4.8-12.6-2.2-19.5c1.4-3.6,3.9-6.2,7.5-7.6c4.5-1.8,8.8-1.2,12.6,2c0.5,0.5,1.1,0.9,1.8,1.6c0-0.6,0.1-1.1,0.1-1.5
		c0-4.1,0-8.2,0-12.4c0-0.9,0.3-1.2,1.2-1.2c2.8,0.1,5.6,0.1,8.4,0.1c0.9,0,1.2,0.4,1.2,1.4c-0.1,11.6-0.2,23.2-0.2,34.9
		c0,1.7,0.1,3.5,0.2,5.2c0,0.9-0.2,1.3-1.2,1.3c-2.7,0-5.4,0-8.1,0.1C529.9,43,529.4,42.9,528.9,42.8z M522.7,19.8
		c-3.4,0-5.7,2-6.6,5.6c-0.9,3.8,1.5,8.1,5.1,8.9c3.7,0.8,7.1-1.6,7.9-5.9C529.9,24.5,527.1,19.6,522.7,19.8z"/>
	<path class="st2" d="M90,78.1c-15.2,0-30.1,0-45.3,0C52.3,65,59.7,52,67.3,38.8C74.9,52,82.4,65,90,78.1z"/>
	<path class="st1" d="M471.5,42.9c0-10.6,0-21,0-31.5c3.7,0,7.3,0,11,0c0,1.3,0,2.7,0,4.1c0.1,0.1,0.2,0.2,0.3,0.2
		c0.5-0.6,1-1.2,1.5-1.7c4.5-4.4,11.7-4.5,15.7-0.2c2.2,2.3,2.8,5.3,2.8,8.3c0.1,6.7,0,13.3,0,20c0,0.3-0.4,0.8-0.6,0.8
		c-3.3,0-6.7,0-10,0c-0.1,0-0.2-0.1-0.3-0.2c0-0.3,0-0.7,0-1c0-5,0.1-9.9,0.1-14.9c0-1-0.1-2.1-0.3-3.1c-0.6-2.2-2.4-3.6-4.6-3.5
		c-2.2,0.1-4.1,1.8-4.4,4.1c-0.1,1-0.2,2-0.2,3c0,4.8,0,9.6,0.1,14.4c0,1-0.2,1.2-1.3,1.2c-2.8-0.1-5.7,0-8.5,0.1
		C472.4,43,472,42.9,471.5,42.9z"/>
	<path class="st1" d="M187.4,11.3c0,1.5,0,2.8,0,4.1c0.1,0.1,0.2,0.2,0.3,0.2c0.4-0.5,0.8-1,1.2-1.4c4.2-4.1,9.5-4.9,14.1-2
		c3.2,2,4.5,5.3,4.6,8.8c0.1,6.9,0.1,13.8,0,20.7c0,0.3-0.4,1-0.6,1c-3.4,0.1-6.8,0-10.3,0c0-1.1,0-2.1,0-3.2c0-4.8,0-9.6,0-14.4
		c0-1.9-0.5-3.6-2.4-4.5c-3.4-1.7-6.8,0.5-6.9,4.5c-0.1,5.3,0,10.7,0,16c0,0.5,0,0.9,0,1.5c-3.7,0-7.3,0-11,0c0-0.8,0-1.7,0-2.5
		c0-9.2,0-18.5,0-27.7c0-1,0.3-1.3,1.3-1.2C180.8,11.4,184,11.3,187.4,11.3z"/>
	<path class="st1" d="M389.3,43.8c-9.8-0.5-17.5-6.2-18-16.1c-0.3-6.2,2.6-11.1,7.8-14.4c7.5-4.8,18-3.2,23.4,3.6
		c7.8,9.9,2.3,23.2-9,26.1C392,43.4,390.3,43.6,389.3,43.8z M395.5,27.4c0-2.6-0.7-4.8-2.9-6.3c-4.3-2.9-9.2-0.9-10.5,4.3
		c-0.7,2.9,0.2,5.5,2.4,7.4c2.1,1.8,4.6,2.1,7.1,1C394.3,32.6,395.5,30.3,395.5,27.4z"/>
	<path class="st1" d="M457.1,24.9c0.5-2.9-1.6-5.3-4.8-5.6c-3.1-0.3-6.2,0.1-9.1,1.2c-0.8,0.3-1.2,0.2-1.5-0.7
		c-0.5-1.9-1.1-3.8-1.6-5.8c-0.1-0.3,0.3-1.1,0.6-1.2c6.3-2.1,12.6-3.2,19.1-1c4.8,1.6,7.6,5,7.8,10.1c0.3,6.7,0.2,13.4,0.3,20.1
		c0,0.7-0.2,0.9-0.9,0.8c-2.9,0-5.7,0-8.6,0c-1.4,0-1.6-0.2-1.4-1.6c0-0.4,0.1-0.8,0.2-1.6c-0.6,0.4-0.9,0.6-1.2,0.8
		c-3.6,2.7-7.5,3.8-12,2.5c-4.5-1.3-7.2-4.9-7-9.5c0.2-4.4,2.3-7.3,6.5-8.7c3.9-1.3,7.8-1.1,11.7-0.2
		C455.9,24.8,456.5,24.8,457.1,24.9z M457.5,31.5c-0.3-0.6-0.4-1.5-0.9-1.7c-2.5-0.9-5.1-1.1-7.5,0.3c-1.3,0.7-1.6,2-1.6,3.4
		c0.1,1.4,0.8,2.5,2.1,2.9C453.9,37.8,457.2,35.2,457.5,31.5z"/>
	<path class="st1" d="M161.9,25.1c0.5-3-1.6-5.5-4.9-5.8c-3-0.3-5.9,0.1-8.7,1.1c-0.4,0.1-0.9,0.3-1.4,0.5c-0.5-1.8-1-3.5-1.5-5.2
		c-0.8-2.8-1.1-2.3,1.6-3.2c5.4-1.7,10.9-2.3,16.5-0.9c5.2,1.3,8.8,5,9,10.3c0.2,6.9,0.1,13.9,0.1,21c-3.4,0-6.9,0-10.5,0
		c0-0.9,0-1.8,0-3c-0.6,0.4-0.9,0.6-1.3,0.9c-4,3-8.4,3.8-13.2,1.9c-4-1.6-6.2-5.7-5.5-10.3c0.7-4.4,3.4-7,8.2-8
		c3.7-0.8,7.2-0.2,10.7,0.6C161.3,24.9,161.6,25,161.9,25.1z M162.3,31.5c-0.3-0.6-0.4-1.5-0.9-1.6c-2.3-0.9-4.6-1.1-6.9,0
		c-1.5,0.7-2,2.1-2,3.7c0,1.4,0.7,2.4,2,2.9C158.1,37.9,161.8,35.5,162.3,31.5z"/>
	<path class="st1" d="M242.8,30.2c0.5,2.5,2.9,4.7,5.3,5.1c3,0.6,5.6-0.2,7.7-2.2c0.8-0.7,1.3-0.7,2.1,0c1.3,1.2,2.7,2.3,4.1,3.4
		c0.7,0.6,0.8,1,0.1,1.7c-4.8,4.7-10.4,6.5-17,5c-8.4-1.9-13.4-8.6-12.7-17.4c0.5-7.2,5.1-13.1,11.9-14.7c8.4-2,17.5,1.6,19.5,12.6
		c0.3,1.8,0.3,3.6,0.4,5.3c0.1,0.7-0.2,1-1,1c-6.2,0-12.4,0-18.6,0C243.9,30.1,243.3,30.2,242.8,30.2z M248.3,24.6
		C248.3,24.6,248.3,24.6,248.3,24.6c1.5,0,3,0.1,4.5,0c0.3,0,0.9-0.5,0.9-0.7c0.1-2.1-2-4.5-4.1-4.9c-4-0.9-5.9,1.8-6.9,4.7
		c-0.2,0.7,0.1,1,0.8,1C245.1,24.5,246.7,24.6,248.3,24.6z"/>
	<path class="st1" d="M300.7,10.7c4.2-0.1,8.1,1.1,11.8,3c0.8,0.4,0.9,0.7,0.4,1.5c-0.9,1.6-1.7,3.2-2.5,4.9
		c-0.4,0.9-0.8,1.1-1.7,0.5c-2.4-1.4-5.1-2.2-7.9-2.4c-0.5,0-1.1-0.1-1.5,0.1c-0.6,0.3-1.4,0.8-1.5,1.3c-0.1,0.4,0.5,1.3,1,1.6
		c1.4,0.7,2.9,1.1,4.4,1.7c2.1,0.8,4.3,1.6,6.4,2.5c7,3.2,5.1,13,0.4,15.8c-4.1,2.4-8.4,2.7-12.9,2c-3.3-0.6-6.4-1.7-9.3-3.4
		c-1-0.6-1.3-1.1-0.6-2.1c1-1.4,1.9-2.9,2.8-4.4c0.4-0.7,0.8-0.8,1.6-0.4c2.9,1.7,6,2.9,9.4,2.9c0.7,0,1.4,0.1,2-0.2
		c0.6-0.3,1.1-1,1.3-1.6c0.1-0.3-0.5-1.1-1-1.3c-1.5-0.7-3.1-1.1-4.7-1.7c-2.3-0.9-4.7-1.7-6.9-2.9c-2.3-1.3-3.5-3.4-3.6-6.2
		c-0.2-6.7,3.9-10.9,10.9-11.3C299.6,10.7,300.2,10.7,300.7,10.7z"/>
	<path class="st1" d="M209.2,11.3c0.9,0,1.7-0.1,2.4,0c1,0.1,1.3-0.3,1.3-1.3c-0.1-2.2,0-4.4,0-6.7c0.2-0.1,0.4-0.2,0.6-0.2
		c3.1,0,6.2,0.1,9.2,0c0.9,0,1.2,0.3,1.2,1.2c-0.1,1.8,0.1,3.6-0.1,5.4c-0.1,1.3,0.4,1.6,1.5,1.5c1.7-0.1,3.3,0,5,0c0.8,0,1,0.2,1,1
		c0,2.3,0,4.6,0,6.9c0,0.8-0.3,1-1,1c-1.8,0-3.6,0-5.4-0.1c-0.8,0-1.2,0.2-1.2,1.1c0.1,3,0,6,0,9c0,3.4,1.1,4.3,4.5,3.8
		c0.8-0.1,1.6-0.4,2.5-0.6c0.1,0.2,0.2,0.4,0.2,0.7c0,2.2,0.1,4.5,0,6.7c0,0.5-0.4,1.1-0.8,1.3c-3.9,1.6-8,2.2-12,0.6
		c-3.1-1.2-4.8-3.7-5-6.9c-0.3-4.4-0.2-8.9-0.3-13.4c0-2.4,0-2.5-2.4-2.4c-1.1,0.1-1.4-0.3-1.4-1.4
		C209.3,16.3,209.2,13.9,209.2,11.3z"/>
	<path class="st1" d="M434.6,0.1c0,14.4,0,28.5,0,42.7c-3.7,0-7.3,0-10.9,0c0-1.1,0-2,0-3c0-12.9,0-25.7,0-38.6c0-0.6,0-1.2,0.9-1.2
		C427.9,0.1,431.2,0.1,434.6,0.1z"/>
	<path class="st1" d="M419.7,42.8c-3.8,0-7.3,0-11,0c0-0.9,0-1.6,0-2.4c0-13.1,0-26.2-0.1-39.4c0-0.9,0.4-1,1.1-1
		c2.9,0,5.8,0.1,8.7,0c1,0,1.2,0.3,1.2,1.2c0,12.5,0,24.9,0,37.4C419.7,40,419.7,41.4,419.7,42.8z"/>
	<path class="st1" d="M266.5,11.3c2.8,0,5.4,0,8.1,0c3,0,2.9,0,2.9,3c0,0.9,0,1.9,0.2,3c2.2-3.8,4.9-6.7,9.9-6.5c0,0.5,0,0.9,0,1.3
		c0,3,0,6,0.1,9c0,0.8-0.1,1.2-1,1.2c-0.8,0-1.6,0.1-2.4,0.3c-3.7,0.8-6.2,3.5-6.5,7.7c-0.2,3.8-0.2,7.6-0.2,11.4
		c0,1-0.1,1.3-1.2,1.2c-2.7-0.1-5.4,0-8.1,0c-0.5,0-1.1,0-1.7,0C266.5,32.4,266.5,22,266.5,11.3z"/>
	<path class="st1" d="M221.1,65.1c1.6-2.4,3.1-4.6,4.6-6.9c1.6-2.4,3.1-4.8,4.7-7.2c0.4-0.6,2.8-1.2,3.2-0.7
		c0.2,0.3,0.2,0.8,0.2,1.2c0,6.3,0,12.6,0,18.9c0,1.7,0,3.5,0,5.2c0,1.7,0,1.6-1.6,1.7c-1,0.1-1.4-0.2-1.3-1.3c0.1-1.8,0-3.7,0-5.5
		c0-4.5,0.1-9,0.1-13.5c0-0.5-0.1-1-0.1-1.5c-0.1,0-0.2-0.1-0.3-0.1c-3.2,4.7-6.4,9.4-9.7,14.3c-3.3-4.8-6.5-9.5-9.7-14.2
		c-0.1,0-0.2,0.1-0.3,0.1c0,0.3-0.1,0.6-0.1,0.9c0,6.5,0,13.1,0.1,19.6c0,1.7-1.2,1-1.9,1.1c-0.9,0.2-1-0.3-1-1.2
		c0-8.3,0-16.6,0-24.9c0-0.9,0.2-1.1,1.2-1.2c1.6-0.1,2.3,0.7,3,1.9c2.6,4,5.2,7.9,7.8,11.9C220.3,64.3,220.7,64.6,221.1,65.1z"/>
	<path class="st1" d="M465.6,60.9c0.3-0.4,0.6-0.7,0.9-1.1c3.6-4.2,10.3-3.7,12.5,1c0.6,1.2,0.8,2.7,0.8,4.1
		c0.1,3.8,0.1,7.7,0.1,11.5c0,0.7-0.2,1-0.9,0.9c-0.6,0-1.1,0-1.8,0c0-0.4-0.1-0.7-0.1-1c0-3.4,0-6.7,0-10.1c0-0.8,0-1.6-0.2-2.4
		c-0.6-3-2.5-4.5-5.3-4.3c-2.8,0.1-5,1.9-5.2,4.7c-0.2,4-0.2,8-0.3,12c0,0.3,0,0.6,0,1c-0.9,0.1-1.8,0.1-2.8,0.2c0-1.4,0-2.6,0-3.8
		c0-2.8,0-5.6,0-8.4c0-3.3-1.7-5.3-4.6-5.7c-2.9-0.3-5.5,1.6-6.1,4.7c-0.2,1.1-0.2,2.2-0.2,3.2c0,3,0,5.9,0,8.9
		c0,0.3-0.1,0.6-0.1,0.9c-2.8,0.1-2.7,0.1-2.7-2.4c0-5.5-0.1-11-0.2-16.5c0-0.7,0.2-1,0.9-1c0.6,0,1.2,0,2,0c0,0.9,0,1.9,0,3.2
		C457.1,55.7,461.5,55.5,465.6,60.9z"/>
	<path class="st1" d="M365.3,74.8c0,0.9,0,1.6,0,2.5c-6.5,0-13,0-19.6,0c0-0.7,0-1.3,0-2c0-8,0-16.1-0.1-24.1c0-0.8,0.2-1,1-1
		c5.7,0.1,11.3,0.1,17,0.1c1.8,0,1.8,0,1.7,1.8c0,0.2,0,0.4,0,0.8c-5.5,0-11,0-16.7,0c0,3.1,0,6,0,8.9c0,0.2,0.6,0.6,0.9,0.6
		c4.2,0,8.3,0.1,12.5,0c1.3,0,1.4,0.6,1.4,1.5c0.1,1.1-0.5,1.2-1.4,1.2c-4.2,0-8.3,0-12.5,0c-0.8,0-1.1,0.2-1.1,1.1
		c0.1,2.5,0.1,5,0,7.5c0,0.9,0.3,1.1,1.1,1.1c4.7,0,9.3,0,14,0.1C364.3,74.7,364.8,74.7,365.3,74.8z"/>
	<path class="st1" d="M325.9,60.7c0-0.8,0-1.7,0-2.5c0-0.9,0.6-0.9,1.2-0.8c0.6,0.1,1.6-0.5,1.6,0.7c0,5.8,0.1,11.7-0.1,17.5
		c-0.2,4.4-3.4,7.4-7.9,7.9c-3.4,0.4-6.6-0.2-9.7-1.8c-0.8-0.4-1.3-0.9-0.7-2c0.5-0.9,0.8-0.9,1.6-0.4c3,1.9,6.2,2.2,9.6,1.4
		c2.4-0.6,4.2-2.7,4.5-5.3c0.1-1.1,0-2.3,0-3.7c-0.6,0.5-1.1,0.7-1.4,1.1c-3.1,3.1-6.7,3.8-10.7,1.9c-3.6-1.7-5.4-5.3-5-9.5
		c0.4-4.3,3.8-8,9.1-8.3c2.4-0.1,4.6,0.8,6.3,2.5c0.4,0.4,0.8,1,1.1,1.5C325.5,60.8,325.7,60.8,325.9,60.7z M326,66.3
		c-0.1-4-3.3-7-7.5-7c-4,0-7.1,3.1-7,7c0.1,4,3.2,7.1,7.2,7C322.8,73.3,326.1,70.2,326,66.3z"/>
	<path class="st1" d="M188.3,61c0-4.1,0-7.9,0-11.7c0-0.1,0.1-0.2,0.1-0.3c2.5-0.3,2.5-0.3,2.5,2.1c0,8.3,0,16.7,0.1,25
		c0,1.1-0.2,1.4-1.3,1.3c-0.4-0.1-0.9,0-1.5,0c0-1.2,0-2.3,0-3.4c-0.2-0.1-0.4-0.2-0.5-0.4c-0.2,0.4-0.4,0.9-0.7,1.2
		c-2.5,2.7-5.5,3.8-9.1,2.5c-3.7-1.3-5.9-3.9-6.6-7.7c-0.4-2.2-0.3-4.5,0.6-6.6c2.2-5.4,9.6-8.5,15.1-3.2
		C187.3,60.1,187.7,60.5,188.3,61z M173.7,67.2c-0.1,4.3,3,8,6.9,8c4.2,0.1,7.7-3.4,7.8-7.8c0.1-4.4-3.2-8-7.3-8
		C176.8,59.4,173.8,62.5,173.7,67.2z"/>
	<path class="st1" d="M385.3,60.7c0-0.8,0-1.6,0-2.4c-0.1-0.9,0.4-1.1,1.2-1c0.6,0.1,1.6-0.4,1.6,0.9c0,8.1,0,16.2,0.1,24.4
		c0,0.7-0.2,1-0.9,1c-0.6,0-1.2,0-1.9,0c0-3.3,0-6.5,0-9.8c-0.2-0.1-0.3-0.3-0.5-0.4c-0.2,0.4-0.3,0.8-0.5,1.1
		c-2.5,2.8-5.5,4.1-9.3,2.9c-4-1.3-6.3-4.1-6.8-8.1c-0.6-4.2,0.4-8,4.1-10.6c3.8-2.7,8.1-2.2,11.6,1.1c0.4,0.4,0.7,0.9,1,1.3
		C385.1,60.9,385.2,60.8,385.3,60.7z M385.4,68c0-6-4.4-9.7-9.3-8.3c-3,0.8-4.6,3-5.1,6c-0.6,3.3,0.2,6.1,3,8.2
		c2.2,1.6,4.7,1.9,7.2,0.6C383.9,73,385.4,70.6,385.4,68z"/>
	<path class="st1" d="M428.3,61.1c1.4-1.7,2.9-3.1,5.1-3.8c3.9-1.2,8.6,0.9,10.4,4.4c2.6,4.8,1.6,10.7-2.6,14.1c-3.5,2.9-9,2.5-12-1
		c-0.3-0.4-0.6-0.9-0.9-1.3c-0.2,0.1-0.3,0.2-0.5,0.3c0,0.5,0,1,0,1.5c0,2.3-0.1,4.6,0.1,6.9c0.1,1.2-0.3,1.6-1.5,1.5
		c-0.4-0.1-0.8,0-1.4,0c0-0.7,0-1.3,0-1.9c0-7.7,0.1-15.4,0-23.1c0-1.6,0.9-1.2,1.8-1.3c1.1-0.1,1.1,0.5,1.1,1.3c0,0.8,0,1.6,0,2.4
		C428,61,428.1,61.1,428.3,61.1z M442.4,67.4c0-4.5-3.1-8-7.2-8c-4.1,0-7.6,3.7-7.6,8c0,4,3.5,7.8,7.4,7.8
		C439.2,75.3,442.4,71.9,442.4,67.4z"/>
	<path class="st1" d="M104.4,50.2c1.1,0.1,2,0.1,3,0.2c0,0.5,0,0.9,0,1.3c0,5,0,10,0,15c0,3.2,1,5.8,3.8,7.4c3,1.7,6.2,1.6,9.2-0.1
		c2.4-1.3,3.4-3.7,3.5-6.4c0.1-5.3,0-10.6,0.1-15.9c0-0.5,0.1-1.3,0.3-1.3c0.7-0.2,1.5-0.1,2.3,0c0.1,0,0.3,0.4,0.3,0.6
		c0,5.5,0.1,11.1-0.1,16.6c-0.3,8.6-8.5,11.6-14.8,9.7c-4.2-1.3-7.2-4.9-7.4-9.8C104.3,61.7,104.4,56,104.4,50.2z"/>
	<path class="st1" d="M260.7,68.5c0.3-0.3,0.6-0.5,0.9-0.8c2.8-2.9,5.7-5.8,8.4-8.9c1.3-1.5,2.8-1.5,4.7-1.3
		c-1.2,1.3-2.3,2.4-3.3,3.4c-1.4,1.4-2.7,2.8-4.1,4.2c-0.7,0.6-0.8,1.1-0.1,1.9c2.6,3.3,5.1,6.6,7.6,9.9c0.1,0.1,0.1,0.2,0.1,0.4
		c-1.7,0.1-3.1,0.3-4.3-1.4c-1.6-2.4-3.4-4.6-5.2-6.9c-0.3-0.4-0.6-0.7-0.8-1c-1.4,1.3-2.7,2.6-4,3.9c-0.2,0.2-0.2,0.7-0.2,1
		c0,1.4,0,2.8,0,4.4c-0.8,0-1.6,0.1-2.3,0c-0.3-0.1-0.7-0.7-0.7-1c-0.1-3.1-0.1-6.2-0.1-9.4c0-5.9,0-11.8,0-17.8c1,0,1.9,0,3,0
		c0,6.5,0,12.9,0,19.4C260.5,68.4,260.6,68.4,260.7,68.5z"/>
	<path class="st1" d="M487,68.3c0.3,5.6,6.4,8.8,11.3,6c0.5-0.3,1.1-0.6,1.5-1.1c0.8-0.8,1.3-0.5,1.9,0.2c0.6,0.8,0.1,1.1-0.4,1.6
		c-2.8,2.3-5.9,3.3-9.5,2.4c-4.1-1.1-7.1-4.8-7.5-9.3c-0.4-5.1,2.7-9.8,7.5-11c4.7-1.2,9.5,1.6,10.7,6.4c0.3,1.2,0.4,2.4,0.6,3.6
		c0.2,0.9-0.2,1.2-1.1,1.2c-4.3,0-8.6,0-12.9,0C488.4,68.3,487.7,68.3,487,68.3z M500.4,66.3c-0.4-1.3-0.6-2.3-1-3.3
		c-1.1-2.7-3.9-4.2-6.6-3.7c-2.8,0.5-5.6,3.5-5.7,6.3c0,0.2,0.5,0.7,0.8,0.7c1.8,0.1,3.6,0,5.4,0C495.5,66.3,497.8,66.3,500.4,66.3z
		"/>
	<path class="st1" d="M167.8,68.3c-4.8,0-9.3,0-13.7,0c-0.4,0-0.8,0-1.2,0c-0.8,0-1.2,0.3-0.9,1.3c1.5,5.8,8.3,7.8,12.6,3.7
		c0.9-0.8,1.3-0.3,1.8,0.2c0.7,0.6,0.3,1-0.2,1.5c-5.4,4.6-12.5,3.6-15.8-2.4c-2.9-5.2-1.4-14.7,7.8-15.6c4.5-0.4,8.4,2.6,9.3,7.8
		C167.6,65.8,167.6,67,167.8,68.3z M158.3,66.4C158.3,66.3,158.3,66.3,158.3,66.4c1.9,0,3.7,0,5.6-0.1c0.5,0,1.1,0.1,1-0.7
		c-0.3-1.6-0.7-3.3-2-4.5c-1.8-1.8-4-2.4-6.4-1.5c-2.4,0.8-4.6,3.7-4.7,6c0,0.8,0.4,0.9,1,0.8C154.6,66.3,156.4,66.4,158.3,66.4z"/>
	<path class="st1" d="M407.7,74c-0.3,0.4-0.6,0.8-0.9,1.1c-2.3,2.6-5.1,3.2-8.4,2.1c-3.1-1-4.7-3.4-4.9-6.5
		c-0.2-4.4-0.1-8.9-0.1-13.3c0.1-0.1,0.2-0.1,0.2-0.1c2.7-0.2,2.7-0.2,2.7,2.5c0,3.1,0,6.2,0,9.4c0,3.6,1.8,5.7,5.2,6
		c3,0.3,5.8-1.9,6.3-5c0.2-0.9,0.2-1.8,0.2-2.7c0-3.1,0-6.2-0.1-9.4c0-0.2,0.1-0.5,0.1-0.7c0.1-0.1,0.2-0.1,0.3-0.1
		c2.3-0.2,2.3-0.2,2.3,2.1c0,5.5,0,11.1,0.1,16.6c0,1.2-0.6,1.2-1.5,1.2c-0.9,0-1.6,0-1.3-1.2c0.1-0.6,0-1.2,0-1.8
		C408,74.2,407.8,74.1,407.7,74z"/>
	<path class="st1" d="M507.4,77.2c0-6.6,0-13.2,0-20.1c1,0.3,2.2,0.3,2.6,0.8c0.4,0.6,0.1,1.7,0.1,3c0.6-0.6,0.9-1,1.3-1.4
		c3.8-4,10-3.5,12.5,1.2c0.6,1.1,0.8,2.4,0.8,3.6c0.1,3.8,0,7.6,0.1,11.4c0,1.2-0.3,1.8-1.6,1.6c-0.4-0.1-0.8-0.1-1.2-0.1
		c0-3.4,0-6.8,0-10.2c0-1.2,0-2.4-0.3-3.6c-0.7-3.4-4.5-5-8.1-3.4c-2.3,1-3.3,2.9-3.4,5.3c-0.1,3.2-0.1,6.4-0.1,9.6
		C510.1,77.5,510.2,77.5,507.4,77.2z"/>
	<path class="st1" d="M287.2,77.3c0-6.7,0-13.3,0-20.1c1,0.2,2.2,0.2,2.6,0.7c0.4,0.6,0.1,1.7,0.1,2.6c0.1,0.1,0.3,0.2,0.4,0.2
		c0.3-0.4,0.6-0.8,0.9-1.2c1.8-2.4,5.8-3.3,9-1.9c2.5,1.1,4.3,3.9,4.3,7.2c0,3.8,0,7.6,0,11.4c0,0.3,0,0.7-0.1,1
		c-0.2,0.1-0.3,0.1-0.4,0.1c-2.5,0.1-2.5,0.1-2.5-2.4c0-3.4,0.2-6.8,0-10.2c-0.1-3.2-1.7-4.7-4.7-5.1c-2.8-0.4-5.5,1.1-6.4,3.7
		c-0.4,1.1-0.5,2.3-0.5,3.4c-0.1,3.1,0,6.2,0.1,9.2c0,1.2-0.3,1.6-1.4,1.5C288.1,77.2,287.7,77.3,287.2,77.3z"/>
	<path class="st1" d="M138,57c2.8,0.1,4.9,0.8,6.9,1.8c0.2,0.1,0.4,0.5,0.4,0.7c-0.1,0.9-1.4,1.5-2.2,1.1c-1.7-0.9-3.5-1.5-5.5-1.3
		c-2.3,0.2-3.8,2.1-3.1,3.9c0.3,0.6,1,1.3,1.6,1.6c1.4,0.7,3,1.1,4.4,1.6c0.8,0.3,1.6,0.6,2.4,1c1.9,0.9,2.9,2.4,2.9,4.6
		c-0.1,2.3-1.2,3.9-3.3,4.9c-3.1,1.4-6.1,0.8-9.1-0.4c-0.6-0.2-1.1-0.6-1.7-0.9c-0.7-0.4-1.2-0.8-0.6-1.8c0.6-0.8,1-0.8,1.8-0.3
		c2,1.3,4.2,2.1,6.6,1.7c1-0.1,2.1-0.6,2.8-1.3c1.3-1.2,1.1-3-0.3-4c-1.1-0.7-2.5-1.2-3.7-1.7c-1.1-0.4-2.3-0.7-3.4-1.2
		c-2.3-0.9-3.4-2.5-3.4-4.6c0-2.2,1.4-4.2,3.5-5C136.2,57.3,137.3,57.1,138,57z"/>
	<path class="st1" d="M533.5,59.8c0,4.2-0.1,8.2,0,12.2c0.1,2.5,2.2,3.7,4.8,3c0.4-0.1,0.8-0.2,1.1-0.3c0.5,1.7,0.3,2.3-1.1,2.7
		c-1.7,0.6-3.5,0.4-5.1-0.3c-1.4-0.6-2.2-1.8-2.3-3.3c-0.1-3.8-0.2-7.7-0.3-11.5c0-0.7,0-1.5,0-2.4c-0.5,0-1-0.1-1.4,0
		c-1.2,0.2-1.5-0.4-1.4-1.5c0.1-0.8,0.4-1,1.2-1c1.7,0.1,1.7,0.1,1.6-1.6c0-1.1,0-2.2-0.1-3.2c-0.1-0.9,0.2-1.2,1.1-1.2
		c0.5,0,1.1,0,1.8,0c0,2,0,3.9,0,6c1.7,0,3.3,0.1,4.9,0c1.2-0.1,1.6,0.5,1.5,1.6c0,0.7-0.3,0.9-1,0.9
		C537,59.8,535.3,59.8,533.5,59.8z"/>
	<path class="st1" d="M249.2,77.3c0-9.6,0-19,0-28.3c0.2-0.1,0.2-0.1,0.3-0.2c2.4-0.3,2.4-0.2,2.4,2.2c0,8.2,0,16.3,0,24.5
		c0,1.8,0,1.8-1.7,1.8C249.9,77.3,249.6,77.3,249.2,77.3z"/>
	<path class="st1" d="M419.4,77.3c-1,0-1.9,0-2.9,0c0-6.6,0-13.2,0-19.8c0.9,0,1.9,0,2.9,0C419.4,64,419.4,70.6,419.4,77.3z"/>
	<path class="st1" d="M240.5,57.4c2.9-0.1,2.9-0.1,2.9,2.6c0,5.2,0,10.5,0.1,15.7c0,1.3-0.4,1.7-1.6,1.6c-0.4,0-0.8,0-1.3,0
		C240.5,70.6,240.5,64.1,240.5,57.4z"/>
	<path class="st1" d="M281.4,57.5c0,6.6,0,13.1,0,19.7c-1,0-1.9,0-2.9,0c0-0.5-0.1-0.9-0.1-1.4c0-5.5,0-11.1,0-16.6
		c0-1.9,0-1.9,1.9-1.8C280.7,57.4,281,57.4,281.4,57.5z"/>
	<path class="st1" d="M419.4,49.7c0.1,0.1,0.1,0.2,0.1,0.2c0.1,3.6,0.4,3-3,2.9C415.7,49.8,416.1,49.4,419.4,49.7z"/>
	<path class="st1" d="M278.5,52.8c0-0.5-0.1-0.8-0.1-1.1c-0.1-2.2,0-2.2,2.2-2.1c0.8,0,1.1,0.3,1.1,1.1c0,2.1,0,2.1-2,2.1
		C279.3,52.8,278.9,52.8,278.5,52.8z"/>
	<path class="st1" d="M240.4,52.7c-0.4-3.3-0.2-3.6,2.9-2.9c0,0.9,0,1.9,0,2.9C242.4,52.7,241.4,52.7,240.4,52.7z"/>
</g>
</svg>
